<svg xmlns="http://www.w3.org/2000/svg" width="1600" height="420" viewBox="0 0 1600 420" fill="none">
  <defs>
    <linearGradient id="bg" x1="0" y1="0" x2="1600" y2="420" gradientUnits="userSpaceOnUse">
      <stop stop-color="#0A0D12"/>
      <stop offset="1" stop-color="#111722"/>
    </linearGradient>
    <radialGradient id="glow" cx="0" cy="0" r="1" gradientUnits="userSpaceOnUse" gradientTransform="translate(1180 74) rotate(153) scale(600 260)">
      <stop stop-color="#B8C2D7" stop-opacity="0.3"/>
      <stop offset="1" stop-color="#B8C2D7" stop-opacity="0"/>
    </radialGradient>
    <linearGradient id="chip" x1="0" y1="0" x2="1" y2="1">
      <stop stop-color="#EDEFF4"/>
      <stop offset="1" stop-color="#C8D0E0"/>
    </linearGradient>
  </defs>

  <rect width="1600" height="420" rx="24" fill="url(#bg)"/>
  <rect width="1600" height="420" rx="24" fill="url(#glow)"/>

  <g opacity="0.24">
    <circle cx="92" cy="72" r="1.8" fill="#E4E9F4"/>
    <circle cx="128" cy="54" r="1.4" fill="#E4E9F4"/>
    <circle cx="164" cy="86" r="1.7" fill="#E4E9F4"/>
    <circle cx="1520" cy="332" r="1.7" fill="#E4E9F4"/>
    <circle cx="1478" cy="306" r="1.3" fill="#E4E9F4"/>
    <circle cx="1434" cy="344" r="1.6" fill="#E4E9F4"/>
  </g>

  <g transform="translate(88 74)">
    <rect x="0" y="0" width="150" height="38" rx="19" fill="#0D1420" stroke="#2C3A55"/>
    <text x="24" y="25" fill="#D8DFEE" font-family="JetBrains Mono, Consolas, monospace" font-size="14">v1.0.0</text>
  </g>

  <text x="88" y="168" fill="#F4F7FF" font-family="Sora, Segoe UI, Arial, sans-serif" font-weight="800" font-size="68">PrintForge Atlas</text>
  <text x="88" y="214" fill="#C4CEE0" font-family="Sora, Segoe UI, Arial, sans-serif" font-weight="500" font-size="28">A multilingual operating map of the 3D-printing ecosystem</text>
  <text x="88" y="258" fill="#AEBAD0" font-family="JetBrains Mono, Consolas, monospace" font-size="20">search • compare • sync • calculators • export</text>

  <g transform="translate(1048 96)">
    <rect x="0" y="0" width="456" height="236" rx="22" fill="#0D1118" stroke="#2D3748"/>
    <rect x="22" y="20" width="412" height="28" rx="14" fill="#131B28" stroke="#2D3A54"/>
    <circle cx="44" cy="34" r="4" fill="#8FA1C6"/>
    <circle cx="62" cy="34" r="4" fill="#8FA1C6"/>
    <circle cx="80" cy="34" r="4" fill="#8FA1C6"/>

    <rect x="22" y="66" width="186" height="72" rx="14" fill="#121926" stroke="#2B3447"/>
    <text x="36" y="90" fill="#E7EDF9" font-family="Sora, Segoe UI, Arial, sans-serif" font-size="17" font-weight="700">Cost</text>
    <text x="36" y="116" fill="#9BAACA" font-family="JetBrains Mono, Consolas, monospace" font-size="14">material + energy + amort.</text>

    <rect x="230" y="66" width="204" height="72" rx="14" fill="#121926" stroke="#2B3447"/>
    <text x="244" y="90" fill="#E7EDF9" font-family="Sora, Segoe UI, Arial, sans-serif" font-size="17" font-weight="700">Time</text>
    <text x="244" y="116" fill="#9BAACA" font-family="JetBrains Mono, Consolas, monospace" font-size="14">layers + overhead presets</text>

    <rect x="22" y="154" width="412" height="60" rx="14" fill="#101725" stroke="#2B3447"/>
    <text x="38" y="192" fill="#D6E0F4" font-family="JetBrains Mono, Consolas, monospace" font-size="18">EN • RU • DE   |   DARK • LIGHT</text>
  </g>
</svg>
